<svg xmlns="http://www.w3.org/2000/svg" viewBox="0 0 120 120" fill="none">
  <path d="M30 42c6-18 17-28 30-28s24 10 30 28" stroke="#243044" stroke-width="4" stroke-linecap="round"/>
  <path d="M22 48c4-8 8-10 12-10m52 0c4 0 8 2 12 10" stroke="#243044" stroke-width="3" stroke-linecap="round"/>
  <ellipse cx="60" cy="66" rx="28" ry="29" stroke="#243044" stroke-width="4"/>
  <circle cx="49" cy="63" r="3.6" fill="#243044"/>
  <circle cx="71" cy="63" r="3.6" fill="#243044"/>
  <path d="M52 79c3 3 6 5 8 5s5-2 8-5" stroke="#243044" stroke-width="3.5" stroke-linecap="round"/>
  <path d="M56 86c2 4 3 8 4 12m4-12c-2 4-3 8-4 12" stroke="#243044" stroke-width="3.5" stroke-linecap="round"/>
</svg>
