<svg xmlns="http://www.w3.org/2000/svg" viewBox="0 0 120 120" fill="none">
  <path d="M25 44c4-18 17-30 35-30s31 12 35 30" stroke="#243044" stroke-width="4" stroke-linecap="round"/>
  <path d="M28 42c5-6 12-10 17-9m5-2c6-2 14 0 21 4m5 2c5 2 8 4 11 8" stroke="#243044" stroke-width="3" stroke-linecap="round"/>
  <ellipse cx="60" cy="66" rx="29" ry="29" stroke="#243044" stroke-width="4"/>
  <circle cx="49" cy="64" r="3.5" fill="#243044"/>
  <circle cx="71" cy="64" r="3.5" fill="#243044"/>
  <path d="M52 80c3 4 6 5 8 5s5-1 8-5" stroke="#243044" stroke-width="3.5" stroke-linecap="round"/>
  <path d="M40 90c6 7 12 11 20 11s14-4 20-11" stroke="#243044" stroke-width="4" stroke-linecap="round"/>
</svg>
